<?xml version="1.0" standalone="no"?><!DOCTYPE svg PUBLIC "-//W3C//DTD SVG 1.1//EN" "http://www.w3.org/Graphics/SVG/1.1/DTD/svg11.dtd"><svg t="1649587599676" class="icon" viewBox="0 0 1024 1024" version="1.1" xmlns="http://www.w3.org/2000/svg" p-id="2496" xmlns:xlink="http://www.w3.org/1999/xlink" width="200" height="200"><defs><style type="text/css">@font-face { font-family: feedback-iconfont; src: url("//at.alicdn.com/t/font_1031158_u69w8yhxdu.woff2?t=1630033759944") format("woff2"), url("//at.alicdn.com/t/font_1031158_u69w8yhxdu.woff?t=1630033759944") format("woff"), url("//at.alicdn.com/t/font_1031158_u69w8yhxdu.ttf?t=1630033759944") format("truetype"); }
</style></defs><path d="M150.357574 895.999403h716.799523V329.557114S852.309106 17.066655 503.466672 17.066655 152.57624 337.066442 152.57624 337.066442z" fill="#FFF385" p-id="2497"></path><path d="M418.133396 692.223539h198.485201l22.357318 93.866604 59.733294 13.82399s-8.533328 93.866604-173.909218 83.285278-202.581198-75.775949-202.581198-75.775949l66.218623-19.114654z" fill="#FFECE3" p-id="2498"></path><path d="M201.045541 836.266109C153.600239 892.586072 143.701579 1006.932662 143.701579 1006.932662h735.914176s11.093326-99.157267-52.565298-161.279892a208.042528 208.042528 0 0 0-117.759922-48.639968 285.18381 285.18381 0 0 1-182.442545 62.122625C392.533413 859.98876 312.832133 802.132799 312.832133 802.132799a109.567927 109.567927 0 0 0-111.786592 34.13331z" fill="#CE66FF" p-id="2499"></path><path d="M251.733507 237.909175a343.039771 343.039771 0 0 0 166.399889-5.290663c91.818605-25.599983 99.157267-37.375975 99.157267-37.375975a251.221166 251.221166 0 0 0 133.290578 51.199965c81.066613 6.485329 121.685252-13.823991 121.685252-13.82399l6.485329 119.466587 6.314663 147.114568-2.047999 72.533285s2.218665 32.085312-38.399974 70.485287S680.618554 682.666212 680.618554 682.666212H358.400102s-59.733294-2.047999-85.333276-40.447973a220.501186 220.501186 0 0 1-31.914645-68.266622l4.266663-70.314619-2.047998-140.799907z" fill="#FFECE3" p-id="2500"></path><path d="M512 511.999659c35.498643 0 83.967944-15.701323 92.501272 4.266663S573.098626 580.26628 513.365332 580.26628s-118.442588-48.810634-92.501271-72.533285c15.701323-14.165324 91.135939 4.266664 91.135939 4.266664z" fill="#EC7094" p-id="2501"></path><path d="M729.941188 526.164983m-46.933302 0a46.933302 46.933302 0 1 0 93.866604 0 46.933302 46.933302 0 1 0-93.866604 0Z" fill="#EC7094" p-id="2502"></path><path d="M294.058812 526.164983m-46.933302 0a46.933302 46.933302 0 1 0 93.866604 0 46.933302 46.933302 0 1 0-93.866604 0Z" fill="#EC7094" p-id="2503"></path><path d="M568.831962 345.08777a46.421302 46.421302 0 0 1 27.477315-7.338662 47.103969 47.103969 0 0 1 27.647982 7.338662 12.799991 12.799991 0 0 0 17.066655-19.79732 79.530614 79.530614 0 0 0-87.893275 0 12.629325 12.629325 0 0 0-1.535999 17.066655 12.799991 12.799991 0 0 0 17.237322 2.730665zM381.952087 343.210438a12.799991 12.799991 0 0 0 17.919988 1.877332 46.421302 46.421302 0 0 1 26.794649-7.338662 46.933302 46.933302 0 0 1 27.647981 7.338662 12.799991 12.799991 0 0 0 17.066655-19.79732 70.31462 70.31462 0 0 0-44.714636-13.141325 69.80262 69.80262 0 0 0-43.861305 13.311991 12.629325 12.629325 0 0 0-0.853332 17.749322z" fill="#4C4497" p-id="2504"></path><path d="M429.568055 420.010387m-33.962644 0a33.962644 33.962644 0 1 0 67.925288 0 33.962644 33.962644 0 1 0-67.925288 0Z" fill="#4C4497" p-id="2505"></path><path d="M594.431945 420.010387m-33.962644 0a33.962644 33.962644 0 1 0 67.925288 0 33.962644 33.962644 0 1 0-67.925288 0Z" fill="#4C4497" p-id="2506"></path><path d="M887.466416 925.866049V349.866433A350.207767 350.207767 0 0 0 537.599983 0h-51.199966A350.207767 350.207767 0 0 0 136.533584 349.866433v576.170283l-10.239994 78.847947A17.066655 17.066655 0 0 0 140.800247 1023.999317h2.218666a17.066655 17.066655 0 0 0 17.066655-14.84799l10.239993-78.847947v-2.389332a122.197252 122.197252 0 0 1 108.543928-103.594598l51.199966-5.290663A342.698438 342.698438 0 0 0 512 866.986089c11.946659 0 23.893317 0 35.498643-1.535999a8.533328 8.533328 0 1 0-1.535999-17.066656c-11.093326 1.023999-22.527985 1.535999-34.133311 1.535999a337.749108 337.749108 0 0 1-152.234565-34.13331 61.098626 61.098626 0 0 0 51.199966-48.127968l12.629325-60.586626H600.746608l12.458658 60.927959a61.098626 61.098626 0 0 0 51.199966 48.127968 280.575813 280.575813 0 0 1-34.133311 15.018657 8.533328 8.533328 0 0 0 5.631996 16.042656A282.965145 282.965145 0 0 0 693.077213 819.199454l51.199965 5.290663A122.197252 122.197252 0 0 1 853.333106 927.743382v2.389331l10.239993 78.847948a17.066655 17.066655 0 0 0 17.066655 14.84799h2.218665a17.066655 17.066655 0 0 0 14.677324-19.114654z m-376.490415-708.266194c17.066655 13.994657 52.053299 35.66931 119.466587 49.834633a280.405146 280.405146 0 0 0 120.661253 1.535999l11.775992 287.402475a111.786592 111.786592 0 0 1-111.786592 116.053256h-278.186482a111.786592 111.786592 0 0 1-111.786592-116.053256l11.093326-290.133139a347.477102 347.477102 0 0 0 126.805249 0 280.23448 280.23448 0 0 0 111.957259-48.639968z m237.397175 572.415618l-77.653282-8.021328a27.306648 27.306648 0 0 1-24.063984-21.674652l-11.093326-53.759964h15.701323a145.919903 145.919903 0 0 0 145.749236-151.551899L785.066485 245.247837a17.066655 17.066655 0 0 0-24.575984-14.677324s-42.837305 19.967987-122.367918 3.413331c-87.893275-18.261321-112.127925-48.981301-112.127926-48.981301a17.066655 17.066655 0 0 0-5.461329-4.94933V85.333276a8.533328 8.533328 0 0 0-17.066656 0v94.549271a17.066655 17.066655 0 0 0-3.242664 2.047998 235.349176 235.349176 0 0 1-107.861262 51.199966 313.173125 313.173125 0 0 1-131.754578-3.413331 17.066655 17.066655 0 0 0-21.674653 15.701323l-11.946658 309.93046a145.919903 145.919903 0 0 0 145.749236 151.551899h15.701323l-11.093326 53.759964a27.306648 27.306648 0 0 1-23.893318 21.674652l-77.653281 8.021328A156.330562 156.330562 0 0 0 170.666894 846.335436V349.866433A316.074456 316.074456 0 0 1 486.400017 34.133311h17.066655v13.311991a8.533328 8.533328 0 0 0 17.066656 0V34.133311h17.066655A316.074456 316.074456 0 0 1 853.333106 349.866433v496.469003a156.330562 156.330562 0 0 0-104.95993-56.319963z" fill="#4C4497" p-id="2507"></path><path d="M597.333276 840.020773l-11.434659 2.559999a8.533328 8.533328 0 0 0 1.706666 17.066655h1.706665l11.946659-2.730665a8.533328 8.533328 0 1 0-3.925331-17.066655zM422.229393 500.735666a26.623982 26.623982 0 0 0-13.653324 31.573312c6.826662 26.965315 47.274635 54.783963 103.423931 54.783964 55.807963 0 96.085269-27.989315 102.399932-54.783964a26.623982 26.623982 0 0 0-13.653324-31.573312 71.679952 71.679952 0 0 0-41.471973 0l-13.653324 2.218665a288.597141 288.597141 0 0 1-34.133311 2.559999 290.13314 290.13314 0 0 1-34.13331-2.559999l-13.653324-2.218665a71.679952 71.679952 0 0 0-41.471973 0zM512 522.751651a307.199795 307.199795 0 0 0 36.863975-2.730664l14.335991-2.218666a76.970615 76.970615 0 0 1 30.378646-1.877332 9.727994 9.727994 0 0 1 5.290663 12.287992c-4.266664 17.066655-34.133311 41.813305-86.527942 41.983972-51.199966 0-82.431945-25.087983-86.698609-41.983972a9.727994 9.727994 0 0 1 5.290663-12.287992 14.506657 14.506657 0 0 1 6.314663-1.023999 165.887889 165.887889 0 0 1 24.063984 2.901331l14.33599 2.218666a308.906461 308.906461 0 0 0 36.351976 2.730664z" fill="#4C4497" p-id="2508"></path></svg>